<svg id="Layer_1" data-name="Layer 1" xmlns="http://www.w3.org/2000/svg" viewBox="0 0 658.64 151.47"><defs><style>.cls-1{fill:#231f20;}</style></defs><title>sorgo-logo-vector</title><path class="cls-1" d="M78.74,125.94c-15.9-2.8-31.54-5.61-47.53-8.35q7.26-8.13,15.16-16c4.76-4.78,6.69-9.12,5.56-13s-5-6.32-11.72-7.28C20,78.38,6.12,70.94,1.48,59c-5-11.93,3.07-24.67,17.14-37.7A98.57,98.57,0,0,0,31.39,6.83c12.45,2.82,26.39,5.46,40.72,7.92a54.9,54.9,0,0,1-8,14.79c-3.25,4.43-4.29,8.55-2.4,12.37s6,6.23,12.59,7.19C93.91,52,105.94,58.81,108.91,70s-4.16,23.6-17.12,38.72a167.16,167.16,0,0,0-13.05,17.27" transform="translate(0)"/><path class="cls-1" d="M242.69,86.64c-11.89,14.09-23.83,27.15-39.25,38.22-15.22,11.13-33.09,16-54.8,12.73C127.17,134.46,111.35,124.94,107,112c-4.55-13,2.47-25.8,16.53-39.14s30.26-23.44,47-31.61,30-11.9,46.55-10.37c16.08,1.48,30.5,8,36.61,18.85s.85,22.76-10.95,36.93M204,82.89c4.36-4.66,6.22-8.73,5.44-12.31s-3.92-5.64-9.25-6.24-11.33.45-18.23,3.16a50.55,50.55,0,0,0-17.27,10.76c-4.58,4.5-6.61,8.7-5.82,12.57s4.16,6.25,9.85,7,11.84-.48,18.65-3.46A49.64,49.64,0,0,0,204,82.89" transform="translate(0)"/><path class="cls-1" d="M369,76.05c-18.71.4-37,.27-55-.28-5.28-.16-10.93,1.34-17.1,4.52s-11,7.11-14,12C272.57,109,268,127.3,287.74,151.47c-18.33-.93-36.81-2.24-55.12-3.89C210,99.17,272.24,74.14,276.55,38.24c35.76,1.91,70,2.12,104.41-.2.24,13.9-6.11,26.07-12,38" transform="translate(0)"/><path class="cls-1" d="M529.7,141.81c-23,2.86-45.09,5.19-67.52,7-19,1.71-48.45-4.57-73.11-16.88s-33-26-27.37-40.83,19.76-27.25,32.92-39.56C408.08,39.3,418.19,31,432.79,28.74c11.14-1.79,22.68.62,33.55,7a53.87,53.87,0,0,1,23.23,26.66c-20.22,3.29-40.12,5.71-59.56,7.44a31.17,31.17,0,0,0-16.15,6.65c-5.17,3.92-8.66,8.31-9.67,13.35s.9,9.29,5.69,12.75a26.54,26.54,0,0,0,17.25,4.66q9.78-.58,19.72-1.34c-2.5-8.13-2.55-16-1.66-24q22-2,44.9-5.21c1.28,21.12,9,41.52,39.61,65.08" transform="translate(0)"/><path class="cls-1" d="M637.84,48.86C653.42,65.6,662.56,82.65,657,99.1c-5.38,16.39-21.71,26.76-45,30.68s-49.6.37-75.83-9.54c-26.07-10-40.37-22.77-42.15-38.67s5.89-31,13.54-46.92c7.9-15.87,14.75-27.44,28.87-32.3,13.9-5,31-1.78,50.3,7.72S622.23,32,637.84,48.86M590,62.91A32.13,32.13,0,0,0,575.43,50.1c-6.28-2.88-12.11-3.55-18-2A22,22,0,0,0,544,58c-3.17,5-4.22,10.25-2.36,15.73s6.2,9.69,13.23,12.66a37.85,37.85,0,0,0,22,2.37c7.35-1.42,12.35-4.69,14.81-9.79s1.72-10.47-1.63-16.08" transform="translate(0)"/></svg>